<svg width="1920" height="1080" viewBox="0 0 1920 1080" fill="none" xmlns="http://www.w3.org/2000/svg">
  <defs>
    <linearGradient id="bg" x1="160" y1="80" x2="1760" y2="1000" gradientUnits="userSpaceOnUse">
      <stop stop-color="#0E1728"/>
      <stop offset="0.52" stop-color="#101B31"/>
      <stop offset="1" stop-color="#171228"/>
    </linearGradient>
    <linearGradient id="accent" x1="230" y1="150" x2="1600" y2="900" gradientUnits="userSpaceOnUse">
      <stop stop-color="#FF7A59"/>
      <stop offset="0.48" stop-color="#FFB84D"/>
      <stop offset="1" stop-color="#35D0BA"/>
    </linearGradient>
    <linearGradient id="panel" x1="0" y1="0" x2="1" y2="1">
      <stop stop-color="#17243F" stop-opacity="0.96"/>
      <stop offset="1" stop-color="#121D33" stop-opacity="0.92"/>
    </linearGradient>
    <filter id="shadow" x="-20%" y="-20%" width="140%" height="140%">
      <feDropShadow dx="0" dy="18" stdDeviation="20" flood-color="#050914" flood-opacity="0.35"/>
    </filter>
    <filter id="softGlow" x="-40%" y="-40%" width="180%" height="180%">
      <feGaussianBlur stdDeviation="38"/>
    </filter>
    <style>
      .title { font: 700 74px 'SF Pro Display', 'Helvetica Neue', Arial, sans-serif; fill: #F7FAFC; letter-spacing: -1.8px; }
      .subtitle { font: 500 28px 'SF Pro Display', 'Helvetica Neue', Arial, sans-serif; fill: #B8C4DA; }
      .badge { font: 700 26px 'SF Pro Display', 'Helvetica Neue', Arial, sans-serif; fill: #0E1728; letter-spacing: 0.8px; }
      .section { font: 700 26px 'SF Pro Display', 'Helvetica Neue', Arial, sans-serif; fill: #F8FBFF; letter-spacing: 0.6px; }
      .body { font: 500 18px 'SF Pro Text', 'Helvetica Neue', Arial, sans-serif; fill: #90A2C2; }
      .pill { font: 600 20px 'SF Pro Text', 'Helvetica Neue', Arial, sans-serif; fill: #EDF3FF; }
      .footer { font: 500 22px 'SF Pro Text', 'Helvetica Neue', Arial, sans-serif; fill: #B8C4DA; }
      .tiny { font: 700 18px 'SF Pro Text', 'Helvetica Neue', Arial, sans-serif; fill: #0F1B2E; letter-spacing: 0.8px; }
    </style>
  </defs>

  <rect width="1920" height="1080" fill="url(#bg)"/>

  <circle cx="281" cy="148" r="128" fill="#FF8B5A" fill-opacity="0.18" filter="url(#softGlow)"/>
  <circle cx="1670" cy="188" r="140" fill="#35D0BA" fill-opacity="0.16" filter="url(#softGlow)"/>
  <circle cx="1506" cy="892" r="200" fill="#7B5CFF" fill-opacity="0.09" filter="url(#softGlow)"/>

  <path d="M118 972C474 830 738 1091 1140 930C1418 820 1617 704 1842 764" stroke="url(#accent)" stroke-opacity="0.16" stroke-width="3"/>
  <path d="M86 220C414 108 638 286 930 212C1223 139 1418 54 1826 194" stroke="#FFFFFF" stroke-opacity="0.05" stroke-width="2"/>

  <g transform="translate(104 86)">
    <rect x="0" y="0" width="260" height="64" rx="32" fill="url(#accent)"/>
    <text x="32" y="41" class="badge">iOS 26 ONLY</text>
  </g>

  <g transform="translate(104 190)">
    <text x="0" y="0" class="title">NexaDemo Tech Stack</text>
    <text x="0" y="54" class="subtitle">AI, productivity, voice, payments, widgets, and system-level focus tooling</text>
  </g>

  <g transform="translate(1528 118)" filter="url(#shadow)">
    <rect x="0" y="0" width="290" height="130" rx="34" fill="#0E1728" fill-opacity="0.78" stroke="#24304A"/>
    <rect x="28" y="28" width="94" height="34" rx="17" fill="url(#accent)"/>
    <text x="49" y="51" class="tiny">STACK</text>
    <text x="28" y="93" class="section">Built for iPhone</text>
    <text x="28" y="118" class="body">SwiftUI app + extensions</text>
  </g>

  <g transform="translate(92 316)" filter="url(#shadow)">
    <rect x="0" y="0" width="550" height="300" rx="34" fill="url(#panel)" stroke="#25324D"/>
    <text x="34" y="52" class="section">Core App</text>
    <text x="34" y="84" class="body">Language, UI architecture, state, and navigation</text>
    <rect x="34" y="118" width="114" height="48" rx="24" fill="#223250"/><text x="63" y="149" class="pill">Swift</text>
    <rect x="162" y="118" width="146" height="48" rx="24" fill="#223250"/><text x="197" y="149" class="pill">SwiftUI</text>
    <rect x="322" y="118" width="194" height="48" rx="24" fill="#223250"/><text x="350" y="149" class="pill">Concurrency</text>
    <rect x="34" y="182" width="168" height="48" rx="24" fill="#223250"/><text x="65" y="213" class="pill">Observation</text>
    <rect x="216" y="182" width="170" height="48" rx="24" fill="#223250"/><text x="238" y="213" class="pill">NavigationStack</text>
    <rect x="400" y="182" width="116" height="48" rx="24" fill="#223250"/><text x="446" y="213" class="pill">Tab API</text>
    <rect x="34" y="246" width="124" height="48" rx="24" fill="#223250"/><text x="60" y="277" class="pill">MVVM</text>
    <rect x="172" y="246" width="180" height="48" rx="24" fill="#223250"/><text x="197" y="277" class="pill">Service Layer</text>
    <rect x="366" y="246" width="150" height="48" rx="24" fill="#223250"/><text x="402" y="277" class="pill">UIKit Bridge</text>
  </g>

  <g transform="translate(684 316)" filter="url(#shadow)">
    <rect x="0" y="0" width="550" height="300" rx="34" fill="url(#panel)" stroke="#25324D"/>
    <text x="34" y="52" class="section">Data &amp; Security</text>
    <text x="34" y="84" class="body">Persistence, identity, secure storage, and account flows</text>
    <rect x="34" y="118" width="154" height="48" rx="24" fill="#223250"/><text x="72" y="149" class="pill">SwiftData</text>
    <rect x="202" y="118" width="148" height="48" rx="24" fill="#223250"/><text x="242" y="149" class="pill">Keychain</text>
    <rect x="364" y="118" width="152" height="48" rx="24" fill="#223250"/><text x="398" y="149" class="pill">App Groups</text>
    <rect x="34" y="182" width="168" height="48" rx="24" fill="#223250"/><text x="52" y="213" class="pill">UserDefaults</text>
    <rect x="216" y="182" width="238" height="48" rx="24" fill="#223250"/><text x="241" y="213" class="pill">Sign in with Apple</text>
    <rect x="34" y="246" width="242" height="48" rx="24" fill="#223250"/><text x="62" y="277" class="pill">Biometric Auth</text>
    <rect x="290" y="246" width="226" height="48" rx="24" fill="#223250"/><text x="320" y="277" class="pill">AuthenticationServices</text>
  </g>

  <g transform="translate(1276 316)" filter="url(#shadow)">
    <rect x="0" y="0" width="550" height="300" rx="34" fill="url(#panel)" stroke="#25324D"/>
    <text x="34" y="52" class="section">AI, Audio &amp; Media</text>
    <text x="34" y="84" class="body">Camera intelligence, speech capture, and content upload</text>
    <rect x="34" y="118" width="152" height="48" rx="24" fill="#223250"/><text x="76" y="149" class="pill">Core ML</text>
    <rect x="200" y="118" width="124" height="48" rx="24" fill="#223250"/><text x="240" y="149" class="pill">Vision</text>
    <rect x="338" y="118" width="178" height="48" rx="24" fill="#223250"/><text x="365" y="149" class="pill">MobileNetV2</text>
    <rect x="34" y="182" width="228" height="48" rx="24" fill="#223250"/><text x="58" y="213" class="pill">Speech Recognition</text>
    <rect x="170" y="182" width="168" height="48" rx="24" fill="#223250"/><text x="199" y="213" class="pill">AVFoundation</text>
    <rect x="352" y="182" width="132" height="48" rx="24" fill="#223250"/><text x="391" y="213" class="pill">PhotosUI</text>
    <rect x="34" y="246" width="144" height="48" rx="24" fill="#223250"/><text x="69" y="277" class="pill">ImageKit</text>
    <rect x="192" y="246" width="324" height="48" rx="24" fill="#223250"/><text x="218" y="277" class="pill">Voice Command Parsing</text>
  </g>

  <g transform="translate(92 656)" filter="url(#shadow)">
    <rect x="0" y="0" width="866" height="280" rx="34" fill="url(#panel)" stroke="#25324D"/>
    <text x="34" y="52" class="section">System Frameworks</text>
    <text x="34" y="84" class="body">Deep iOS integrations for widgets, Live Activities, alarms, and focus controls</text>
    <rect x="34" y="118" width="152" height="48" rx="24" fill="#223250"/><text x="65" y="149" class="pill">WidgetKit</text>
    <rect x="200" y="118" width="156" height="48" rx="24" fill="#223250"/><text x="230" y="149" class="pill">ActivityKit</text>
    <rect x="370" y="118" width="138" height="48" rx="24" fill="#223250"/><text x="405" y="149" class="pill">AlarmKit</text>
    <rect x="522" y="118" width="150" height="48" rx="24" fill="#223250"/><text x="552" y="149" class="pill">AppIntents</text>
    <rect x="686" y="118" width="146" height="48" rx="24" fill="#223250"/><text x="706" y="149" class="pill">Notifications</text>
    <rect x="34" y="182" width="182" height="48" rx="24" fill="#223250"/><text x="61" y="213" class="pill">FamilyControls</text>
    <rect x="230" y="182" width="174" height="48" rx="24" fill="#223250"/><text x="253" y="213" class="pill">DeviceActivity</text>
    <rect x="418" y="182" width="196" height="48" rx="24" fill="#223250"/><text x="450" y="213" class="pill">ManagedSettings</text>
    <rect x="628" y="182" width="204" height="48" rx="24" fill="#223250"/><text x="666" y="213" class="pill">Dynamic Island</text>
  </g>

  <g transform="translate(1000 656)" filter="url(#shadow)">
    <rect x="0" y="0" width="826" height="280" rx="34" fill="url(#panel)" stroke="#25324D"/>
    <text x="34" y="52" class="section">Backend &amp; SDK Integrations</text>
    <text x="34" y="84" class="body">Client APIs, Node.js backend, database, monetization, and realtime services</text>
    <rect x="34" y="118" width="150" height="48" rx="24" fill="#223250"/><text x="61" y="149" class="pill">URLSession</text>
    <rect x="198" y="118" width="200" height="48" rx="24" fill="#223250"/><text x="224" y="149" class="pill">Custom REST API</text>
    <rect x="412" y="118" width="118" height="48" rx="24" fill="#223250"/><text x="442" y="149" class="pill">Node.js</text>
    <rect x="544" y="118" width="146" height="48" rx="24" fill="#223250"/><text x="576" y="149" class="pill">Supabase</text>
    <rect x="34" y="182" width="120" height="48" rx="24" fill="#223250"/><text x="59" y="213" class="pill">Railway</text>
    <rect x="168" y="182" width="142" height="48" rx="24" fill="#223250"/><text x="197" y="213" class="pill">Agora RTC</text>
    <rect x="324" y="182" width="168" height="48" rx="24" fill="#223250"/><text x="355" y="213" class="pill">RevenueCat</text>
    <rect x="506" y="182" width="120" height="48" rx="24" fill="#223250"/><text x="544" y="213" class="pill">Stripe</text>
    <rect x="640" y="182" width="144" height="48" rx="24" fill="#223250"/><text x="673" y="213" class="pill">ImageKitIO</text>
  </g>

  <g transform="translate(104 984)">
    <rect x="0" y="0" width="1712" height="1" fill="url(#accent)" fill-opacity="0.46"/>
    <text x="0" y="42" class="footer">Designed from the app codebase and updated with backend stack details: Node.js, Supabase, and Railway.</text>
  </g>
</svg>
